<mxfile host="app.diagrams.net" agent="Mozilla/5.0 (X11; Linux x86_64; rv:131.0) Gecko/20100101 Firefox/131.0" version="24.8.4">
  <diagram name="Page-1" id="EpJRcN41AGm2MSsCL8y9">
    <mxGraphModel grid="1" page="1" gridSize="10" guides="1" tooltips="1" connect="1" arrows="1" fold="1" pageScale="1" pageWidth="850" pageHeight="1100" math="0" shadow="0">
      <root>
        <mxCell id="0" />
        <mxCell id="1" parent="0" />
        <mxCell id="w9-DqvyJSrJAXlp_HZbT-8" value="DB" style="swimlane;fontStyle=1;align=center;verticalAlign=top;childLayout=stackLayout;horizontal=1;startSize=26;horizontalStack=0;resizeParent=1;resizeParentMax=0;resizeLast=0;collapsible=1;marginBottom=0;whiteSpace=wrap;html=1;" vertex="1" parent="1">
          <mxGeometry x="342.5" y="370" width="160" height="242" as="geometry" />
        </mxCell>
        <mxCell id="w9-DqvyJSrJAXlp_HZbT-9" value="&lt;div&gt;- path: String&lt;/div&gt;&lt;div&gt;&lt;br&gt;&lt;/div&gt;" style="text;strokeColor=none;fillColor=none;align=left;verticalAlign=top;spacingLeft=4;spacingRight=4;overflow=hidden;rotatable=0;points=[[0,0.5],[1,0.5]];portConstraint=eastwest;whiteSpace=wrap;html=1;" vertex="1" parent="w9-DqvyJSrJAXlp_HZbT-8">
          <mxGeometry y="26" width="160" height="26" as="geometry" />
        </mxCell>
        <mxCell id="w9-DqvyJSrJAXlp_HZbT-13" value="- version: String" style="text;strokeColor=none;fillColor=none;align=left;verticalAlign=top;spacingLeft=4;spacingRight=4;overflow=hidden;rotatable=0;points=[[0,0.5],[1,0.5]];portConstraint=eastwest;whiteSpace=wrap;html=1;" vertex="1" parent="w9-DqvyJSrJAXlp_HZbT-8">
          <mxGeometry y="52" width="160" height="26" as="geometry" />
        </mxCell>
        <mxCell id="w9-DqvyJSrJAXlp_HZbT-10" value="" style="line;strokeWidth=1;fillColor=none;align=left;verticalAlign=middle;spacingTop=-1;spacingLeft=3;spacingRight=3;rotatable=0;labelPosition=right;points=[];portConstraint=eastwest;strokeColor=inherit;" vertex="1" parent="w9-DqvyJSrJAXlp_HZbT-8">
          <mxGeometry y="78" width="160" height="8" as="geometry" />
        </mxCell>
        <mxCell id="w9-DqvyJSrJAXlp_HZbT-11" value="&lt;div&gt;+ DB()&lt;/div&gt;" style="text;strokeColor=none;fillColor=none;align=left;verticalAlign=top;spacingLeft=4;spacingRight=4;overflow=hidden;rotatable=0;points=[[0,0.5],[1,0.5]];portConstraint=eastwest;whiteSpace=wrap;html=1;" vertex="1" parent="w9-DqvyJSrJAXlp_HZbT-8">
          <mxGeometry y="86" width="160" height="26" as="geometry" />
        </mxCell>
        <mxCell id="w9-DqvyJSrJAXlp_HZbT-17" value="&lt;div&gt;+ checkIntegrity(): Boolean&lt;br&gt;&lt;/div&gt;" style="text;strokeColor=none;fillColor=none;align=left;verticalAlign=top;spacingLeft=4;spacingRight=4;overflow=hidden;rotatable=0;points=[[0,0.5],[1,0.5]];portConstraint=eastwest;whiteSpace=wrap;html=1;" vertex="1" parent="w9-DqvyJSrJAXlp_HZbT-8">
          <mxGeometry y="112" width="160" height="26" as="geometry" />
        </mxCell>
        <mxCell id="w9-DqvyJSrJAXlp_HZbT-15" value="&lt;div&gt;+ getPath(): Path&lt;/div&gt;" style="text;strokeColor=none;fillColor=none;align=left;verticalAlign=top;spacingLeft=4;spacingRight=4;overflow=hidden;rotatable=0;points=[[0,0.5],[1,0.5]];portConstraint=eastwest;whiteSpace=wrap;html=1;" vertex="1" parent="w9-DqvyJSrJAXlp_HZbT-8">
          <mxGeometry y="138" width="160" height="26" as="geometry" />
        </mxCell>
        <mxCell id="w9-DqvyJSrJAXlp_HZbT-18" value="&lt;div&gt;+ setPath(String)&lt;br&gt;&lt;/div&gt;" style="text;strokeColor=none;fillColor=none;align=left;verticalAlign=top;spacingLeft=4;spacingRight=4;overflow=hidden;rotatable=0;points=[[0,0.5],[1,0.5]];portConstraint=eastwest;whiteSpace=wrap;html=1;" vertex="1" parent="w9-DqvyJSrJAXlp_HZbT-8">
          <mxGeometry y="164" width="160" height="26" as="geometry" />
        </mxCell>
        <mxCell id="w9-DqvyJSrJAXlp_HZbT-19" value="+ getversion(): String" style="text;strokeColor=none;fillColor=none;align=left;verticalAlign=top;spacingLeft=4;spacingRight=4;overflow=hidden;rotatable=0;points=[[0,0.5],[1,0.5]];portConstraint=eastwest;whiteSpace=wrap;html=1;" vertex="1" parent="w9-DqvyJSrJAXlp_HZbT-8">
          <mxGeometry y="190" width="160" height="26" as="geometry" />
        </mxCell>
        <mxCell id="w9-DqvyJSrJAXlp_HZbT-20" value="+ setversion(String)" style="text;strokeColor=none;fillColor=none;align=left;verticalAlign=top;spacingLeft=4;spacingRight=4;overflow=hidden;rotatable=0;points=[[0,0.5],[1,0.5]];portConstraint=eastwest;whiteSpace=wrap;html=1;" vertex="1" parent="w9-DqvyJSrJAXlp_HZbT-8">
          <mxGeometry y="216" width="160" height="26" as="geometry" />
        </mxCell>
        <mxCell id="6cDOueKCvC3l6UsM-qoG-1" value="Mindfulness" style="swimlane;fontStyle=1;align=center;verticalAlign=top;childLayout=stackLayout;horizontal=1;startSize=26;horizontalStack=0;resizeParent=1;resizeParentMax=0;resizeLast=0;collapsible=1;marginBottom=0;whiteSpace=wrap;html=1;" vertex="1" parent="1">
          <mxGeometry x="630" width="220" height="216" as="geometry" />
        </mxCell>
        <mxCell id="6cDOueKCvC3l6UsM-qoG-2" value="- score : int" style="text;strokeColor=none;fillColor=none;align=left;verticalAlign=top;spacingLeft=4;spacingRight=4;overflow=hidden;rotatable=0;points=[[0,0.5],[1,0.5]];portConstraint=eastwest;whiteSpace=wrap;html=1;" vertex="1" parent="6cDOueKCvC3l6UsM-qoG-1">
          <mxGeometry y="26" width="220" height="26" as="geometry" />
        </mxCell>
        <mxCell id="6cDOueKCvC3l6UsM-qoG-14" value="- exercises : List" style="text;strokeColor=none;fillColor=none;align=left;verticalAlign=top;spacingLeft=4;spacingRight=4;overflow=hidden;rotatable=0;points=[[0,0.5],[1,0.5]];portConstraint=eastwest;whiteSpace=wrap;html=1;" vertex="1" parent="6cDOueKCvC3l6UsM-qoG-1">
          <mxGeometry y="52" width="220" height="26" as="geometry" />
        </mxCell>
        <mxCell id="6cDOueKCvC3l6UsM-qoG-3" value="" style="line;strokeWidth=1;fillColor=none;align=left;verticalAlign=middle;spacingTop=-1;spacingLeft=3;spacingRight=3;rotatable=0;labelPosition=right;points=[];portConstraint=eastwest;strokeColor=inherit;" vertex="1" parent="6cDOueKCvC3l6UsM-qoG-1">
          <mxGeometry y="78" width="220" height="8" as="geometry" />
        </mxCell>
        <mxCell id="6cDOueKCvC3l6UsM-qoG-4" value="+ Mindfulness() : Mindfulness" style="text;strokeColor=none;fillColor=none;align=left;verticalAlign=top;spacingLeft=4;spacingRight=4;overflow=hidden;rotatable=0;points=[[0,0.5],[1,0.5]];portConstraint=eastwest;whiteSpace=wrap;html=1;" vertex="1" parent="6cDOueKCvC3l6UsM-qoG-1">
          <mxGeometry y="86" width="220" height="26" as="geometry" />
        </mxCell>
        <mxCell id="6cDOueKCvC3l6UsM-qoG-28" value="+ getScore() : int" style="text;strokeColor=none;fillColor=none;align=left;verticalAlign=top;spacingLeft=4;spacingRight=4;overflow=hidden;rotatable=0;points=[[0,0.5],[1,0.5]];portConstraint=eastwest;whiteSpace=wrap;html=1;" vertex="1" parent="6cDOueKCvC3l6UsM-qoG-1">
          <mxGeometry y="112" width="220" height="26" as="geometry" />
        </mxCell>
        <mxCell id="6cDOueKCvC3l6UsM-qoG-29" value="+ setScore(int) " style="text;strokeColor=none;fillColor=none;align=left;verticalAlign=top;spacingLeft=4;spacingRight=4;overflow=hidden;rotatable=0;points=[[0,0.5],[1,0.5]];portConstraint=eastwest;whiteSpace=wrap;html=1;" vertex="1" parent="6cDOueKCvC3l6UsM-qoG-1">
          <mxGeometry y="138" width="220" height="26" as="geometry" />
        </mxCell>
        <mxCell id="6cDOueKCvC3l6UsM-qoG-30" value="+ getExercises() : List" style="text;strokeColor=none;fillColor=none;align=left;verticalAlign=top;spacingLeft=4;spacingRight=4;overflow=hidden;rotatable=0;points=[[0,0.5],[1,0.5]];portConstraint=eastwest;whiteSpace=wrap;html=1;" vertex="1" parent="6cDOueKCvC3l6UsM-qoG-1">
          <mxGeometry y="164" width="220" height="26" as="geometry" />
        </mxCell>
        <mxCell id="6cDOueKCvC3l6UsM-qoG-31" value="+ setExercises(List)" style="text;strokeColor=none;fillColor=none;align=left;verticalAlign=top;spacingLeft=4;spacingRight=4;overflow=hidden;rotatable=0;points=[[0,0.5],[1,0.5]];portConstraint=eastwest;whiteSpace=wrap;html=1;" vertex="1" parent="6cDOueKCvC3l6UsM-qoG-1">
          <mxGeometry y="190" width="220" height="26" as="geometry" />
        </mxCell>
        <mxCell id="NyxN-wr9MTnO8G2wUMHC-13" value="User" style="swimlane;fontStyle=1;align=center;verticalAlign=top;childLayout=stackLayout;horizontal=1;startSize=26;horizontalStack=0;resizeParent=1;resizeParentMax=0;resizeLast=0;collapsible=1;marginBottom=0;whiteSpace=wrap;html=1;" vertex="1" parent="1">
          <mxGeometry x="345" y="-700" width="160" height="300" as="geometry" />
        </mxCell>
        <mxCell id="NyxN-wr9MTnO8G2wUMHC-14" value="&lt;div&gt;- name : String&lt;span style=&quot;white-space: pre;&quot;&gt;&#x9;&lt;/span&gt;&lt;/div&gt;" style="text;strokeColor=none;fillColor=none;align=left;verticalAlign=top;spacingLeft=4;spacingRight=4;overflow=hidden;rotatable=0;points=[[0,0.5],[1,0.5]];portConstraint=eastwest;whiteSpace=wrap;html=1;" vertex="1" parent="NyxN-wr9MTnO8G2wUMHC-13">
          <mxGeometry y="26" width="160" height="26" as="geometry" />
        </mxCell>
        <mxCell id="NyxN-wr9MTnO8G2wUMHC-15" value="- age : Int&lt;div&gt;&lt;br&gt;&lt;/div&gt;&lt;div&gt;- sex : Int&lt;/div&gt;" style="text;strokeColor=none;fillColor=none;align=left;verticalAlign=top;spacingLeft=4;spacingRight=4;overflow=hidden;rotatable=0;points=[[0,0.5],[1,0.5]];portConstraint=eastwest;whiteSpace=wrap;html=1;" vertex="1" parent="NyxN-wr9MTnO8G2wUMHC-13">
          <mxGeometry y="52" width="160" height="58" as="geometry" />
        </mxCell>
        <mxCell id="NyxN-wr9MTnO8G2wUMHC-16" value="" style="line;strokeWidth=1;fillColor=none;align=left;verticalAlign=middle;spacingTop=-1;spacingLeft=3;spacingRight=3;rotatable=0;labelPosition=right;points=[];portConstraint=eastwest;strokeColor=inherit;" vertex="1" parent="NyxN-wr9MTnO8G2wUMHC-13">
          <mxGeometry y="110" width="160" height="8" as="geometry" />
        </mxCell>
        <mxCell id="NyxN-wr9MTnO8G2wUMHC-20" value="+ User(): User&amp;nbsp;" style="text;strokeColor=none;fillColor=none;align=left;verticalAlign=top;spacingLeft=4;spacingRight=4;overflow=hidden;rotatable=0;points=[[0,0.5],[1,0.5]];portConstraint=eastwest;whiteSpace=wrap;html=1;" vertex="1" parent="NyxN-wr9MTnO8G2wUMHC-13">
          <mxGeometry y="118" width="160" height="26" as="geometry" />
        </mxCell>
        <mxCell id="w9-DqvyJSrJAXlp_HZbT-21" value="+ getName(): String" style="text;strokeColor=none;fillColor=none;align=left;verticalAlign=top;spacingLeft=4;spacingRight=4;overflow=hidden;rotatable=0;points=[[0,0.5],[1,0.5]];portConstraint=eastwest;whiteSpace=wrap;html=1;" vertex="1" parent="NyxN-wr9MTnO8G2wUMHC-13">
          <mxGeometry y="144" width="160" height="26" as="geometry" />
        </mxCell>
        <mxCell id="w9-DqvyJSrJAXlp_HZbT-22" value="+ setName(String)" style="text;strokeColor=none;fillColor=none;align=left;verticalAlign=top;spacingLeft=4;spacingRight=4;overflow=hidden;rotatable=0;points=[[0,0.5],[1,0.5]];portConstraint=eastwest;whiteSpace=wrap;html=1;" vertex="1" parent="NyxN-wr9MTnO8G2wUMHC-13">
          <mxGeometry y="170" width="160" height="26" as="geometry" />
        </mxCell>
        <mxCell id="w9-DqvyJSrJAXlp_HZbT-23" value="+ getAge(): int" style="text;strokeColor=none;fillColor=none;align=left;verticalAlign=top;spacingLeft=4;spacingRight=4;overflow=hidden;rotatable=0;points=[[0,0.5],[1,0.5]];portConstraint=eastwest;whiteSpace=wrap;html=1;" vertex="1" parent="NyxN-wr9MTnO8G2wUMHC-13">
          <mxGeometry y="196" width="160" height="26" as="geometry" />
        </mxCell>
        <mxCell id="w9-DqvyJSrJAXlp_HZbT-26" value="+ setAge(int)" style="text;strokeColor=none;fillColor=none;align=left;verticalAlign=top;spacingLeft=4;spacingRight=4;overflow=hidden;rotatable=0;points=[[0,0.5],[1,0.5]];portConstraint=eastwest;whiteSpace=wrap;html=1;" vertex="1" parent="NyxN-wr9MTnO8G2wUMHC-13">
          <mxGeometry y="222" width="160" height="26" as="geometry" />
        </mxCell>
        <mxCell id="w9-DqvyJSrJAXlp_HZbT-25" value="+ getSex(): Enum&amp;lt;Sex&amp;gt;" style="text;strokeColor=none;fillColor=none;align=left;verticalAlign=top;spacingLeft=4;spacingRight=4;overflow=hidden;rotatable=0;points=[[0,0.5],[1,0.5]];portConstraint=eastwest;whiteSpace=wrap;html=1;" vertex="1" parent="NyxN-wr9MTnO8G2wUMHC-13">
          <mxGeometry y="248" width="160" height="26" as="geometry" />
        </mxCell>
        <mxCell id="w9-DqvyJSrJAXlp_HZbT-24" value="+ setSex(Enum&amp;lt;Sex&amp;gt;)" style="text;strokeColor=none;fillColor=none;align=left;verticalAlign=top;spacingLeft=4;spacingRight=4;overflow=hidden;rotatable=0;points=[[0,0.5],[1,0.5]];portConstraint=eastwest;whiteSpace=wrap;html=1;" vertex="1" parent="NyxN-wr9MTnO8G2wUMHC-13">
          <mxGeometry y="274" width="160" height="26" as="geometry" />
        </mxCell>
        <mxCell id="6cDOueKCvC3l6UsM-qoG-7" value="GoalManager" style="swimlane;fontStyle=1;align=center;verticalAlign=top;childLayout=stackLayout;horizontal=1;startSize=26;horizontalStack=0;resizeParent=1;resizeParentMax=0;resizeLast=0;collapsible=1;marginBottom=0;whiteSpace=wrap;html=1;" vertex="1" parent="1">
          <mxGeometry x="315" y="-350" width="215" height="190" as="geometry" />
        </mxCell>
        <mxCell id="6cDOueKCvC3l6UsM-qoG-8" value="- goals : List" style="text;strokeColor=none;fillColor=none;align=left;verticalAlign=top;spacingLeft=4;spacingRight=4;overflow=hidden;rotatable=0;points=[[0,0.5],[1,0.5]];portConstraint=eastwest;whiteSpace=wrap;html=1;" vertex="1" parent="6cDOueKCvC3l6UsM-qoG-7">
          <mxGeometry y="26" width="215" height="26" as="geometry" />
        </mxCell>
        <mxCell id="6cDOueKCvC3l6UsM-qoG-9" value="" style="line;strokeWidth=1;fillColor=none;align=left;verticalAlign=middle;spacingTop=-1;spacingLeft=3;spacingRight=3;rotatable=0;labelPosition=right;points=[];portConstraint=eastwest;strokeColor=inherit;" vertex="1" parent="6cDOueKCvC3l6UsM-qoG-7">
          <mxGeometry y="52" width="215" height="8" as="geometry" />
        </mxCell>
        <mxCell id="6cDOueKCvC3l6UsM-qoG-10" value="+ GoalManager() :GoalManager" style="text;strokeColor=none;fillColor=none;align=left;verticalAlign=top;spacingLeft=4;spacingRight=4;overflow=hidden;rotatable=0;points=[[0,0.5],[1,0.5]];portConstraint=eastwest;whiteSpace=wrap;html=1;" vertex="1" parent="6cDOueKCvC3l6UsM-qoG-7">
          <mxGeometry y="60" width="215" height="26" as="geometry" />
        </mxCell>
        <mxCell id="6cDOueKCvC3l6UsM-qoG-11" value="&lt;div&gt;+ add() &lt;/div&gt;" style="text;strokeColor=none;fillColor=none;align=left;verticalAlign=top;spacingLeft=4;spacingRight=4;overflow=hidden;rotatable=0;points=[[0,0.5],[1,0.5]];portConstraint=eastwest;whiteSpace=wrap;html=1;" vertex="1" parent="6cDOueKCvC3l6UsM-qoG-7">
          <mxGeometry y="86" width="215" height="26" as="geometry" />
        </mxCell>
        <mxCell id="6cDOueKCvC3l6UsM-qoG-12" value="&lt;div&gt;+ remove() &lt;/div&gt;" style="text;strokeColor=none;fillColor=none;align=left;verticalAlign=top;spacingLeft=4;spacingRight=4;overflow=hidden;rotatable=0;points=[[0,0.5],[1,0.5]];portConstraint=eastwest;whiteSpace=wrap;html=1;" vertex="1" parent="6cDOueKCvC3l6UsM-qoG-7">
          <mxGeometry y="112" width="215" height="26" as="geometry" />
        </mxCell>
        <mxCell id="6cDOueKCvC3l6UsM-qoG-26" value="+ getGoals() : int" style="text;strokeColor=none;fillColor=none;align=left;verticalAlign=top;spacingLeft=4;spacingRight=4;overflow=hidden;rotatable=0;points=[[0,0.5],[1,0.5]];portConstraint=eastwest;whiteSpace=wrap;html=1;" vertex="1" parent="6cDOueKCvC3l6UsM-qoG-7">
          <mxGeometry y="138" width="215" height="26" as="geometry" />
        </mxCell>
        <mxCell id="6cDOueKCvC3l6UsM-qoG-27" value="+ setGoals(int)" style="text;strokeColor=none;fillColor=none;align=left;verticalAlign=top;spacingLeft=4;spacingRight=4;overflow=hidden;rotatable=0;points=[[0,0.5],[1,0.5]];portConstraint=eastwest;whiteSpace=wrap;html=1;" vertex="1" parent="6cDOueKCvC3l6UsM-qoG-7">
          <mxGeometry y="164" width="215" height="26" as="geometry" />
        </mxCell>
        <mxCell id="NyxN-wr9MTnO8G2wUMHC-21" value="UI" style="swimlane;fontStyle=1;align=center;verticalAlign=top;childLayout=stackLayout;horizontal=1;startSize=26;horizontalStack=0;resizeParent=1;resizeParentMax=0;resizeLast=0;collapsible=1;marginBottom=0;whiteSpace=wrap;html=1;" vertex="1" parent="1">
          <mxGeometry x="100" y="-660" width="160" height="200" as="geometry" />
        </mxCell>
        <mxCell id="NyxN-wr9MTnO8G2wUMHC-22" value="- version : String" style="text;strokeColor=none;fillColor=none;align=left;verticalAlign=top;spacingLeft=4;spacingRight=4;overflow=hidden;rotatable=0;points=[[0,0.5],[1,0.5]];portConstraint=eastwest;whiteSpace=wrap;html=1;" vertex="1" parent="NyxN-wr9MTnO8G2wUMHC-21">
          <mxGeometry y="26" width="160" height="26" as="geometry" />
        </mxCell>
        <mxCell id="NyxN-wr9MTnO8G2wUMHC-23" value="" style="line;strokeWidth=1;fillColor=none;align=left;verticalAlign=middle;spacingTop=-1;spacingLeft=3;spacingRight=3;rotatable=0;labelPosition=right;points=[];portConstraint=eastwest;strokeColor=inherit;" vertex="1" parent="NyxN-wr9MTnO8G2wUMHC-21">
          <mxGeometry y="52" width="160" height="8" as="geometry" />
        </mxCell>
        <mxCell id="NyxN-wr9MTnO8G2wUMHC-24" value="+ UI () : UI&lt;div&gt;&lt;br&gt;&lt;/div&gt;&lt;div&gt;+ update ()&amp;nbsp;&lt;/div&gt;&lt;div&gt;&lt;br&gt;&lt;/div&gt;&lt;div&gt;+ refresh()&lt;/div&gt;&lt;div&gt;&lt;br&gt;&lt;/div&gt;&lt;div&gt;+ getVersion(): String&lt;/div&gt;&lt;div&gt;&lt;br&gt;&lt;/div&gt;&lt;div&gt;+ setVersion(String)&lt;br&gt;&lt;/div&gt;&lt;div&gt;&lt;br&gt;&lt;/div&gt;&lt;div&gt;&lt;br&gt;&lt;/div&gt;" style="text;strokeColor=none;fillColor=none;align=left;verticalAlign=top;spacingLeft=4;spacingRight=4;overflow=hidden;rotatable=0;points=[[0,0.5],[1,0.5]];portConstraint=eastwest;whiteSpace=wrap;html=1;" vertex="1" parent="NyxN-wr9MTnO8G2wUMHC-21">
          <mxGeometry y="60" width="160" height="140" as="geometry" />
        </mxCell>
        <mxCell id="6cDOueKCvC3l6UsM-qoG-21" value="Nutrition" style="swimlane;fontStyle=1;align=center;verticalAlign=top;childLayout=stackLayout;horizontal=1;startSize=26;horizontalStack=0;resizeParent=1;resizeParentMax=0;resizeLast=0;collapsible=1;marginBottom=0;whiteSpace=wrap;html=1;" vertex="1" parent="1">
          <mxGeometry x="20" width="220" height="216" as="geometry" />
        </mxCell>
        <mxCell id="6cDOueKCvC3l6UsM-qoG-22" value="- score : int" style="text;strokeColor=none;fillColor=none;align=left;verticalAlign=top;spacingLeft=4;spacingRight=4;overflow=hidden;rotatable=0;points=[[0,0.5],[1,0.5]];portConstraint=eastwest;whiteSpace=wrap;html=1;" vertex="1" parent="6cDOueKCvC3l6UsM-qoG-21">
          <mxGeometry y="26" width="220" height="26" as="geometry" />
        </mxCell>
        <mxCell id="6cDOueKCvC3l6UsM-qoG-23" value="- mealHistory : List" style="text;strokeColor=none;fillColor=none;align=left;verticalAlign=top;spacingLeft=4;spacingRight=4;overflow=hidden;rotatable=0;points=[[0,0.5],[1,0.5]];portConstraint=eastwest;whiteSpace=wrap;html=1;" vertex="1" parent="6cDOueKCvC3l6UsM-qoG-21">
          <mxGeometry y="52" width="220" height="26" as="geometry" />
        </mxCell>
        <mxCell id="6cDOueKCvC3l6UsM-qoG-24" value="" style="line;strokeWidth=1;fillColor=none;align=left;verticalAlign=middle;spacingTop=-1;spacingLeft=3;spacingRight=3;rotatable=0;labelPosition=right;points=[];portConstraint=eastwest;strokeColor=inherit;" vertex="1" parent="6cDOueKCvC3l6UsM-qoG-21">
          <mxGeometry y="78" width="220" height="8" as="geometry" />
        </mxCell>
        <mxCell id="6cDOueKCvC3l6UsM-qoG-25" value="+ Nutrition() : Nutrition" style="text;strokeColor=none;fillColor=none;align=left;verticalAlign=top;spacingLeft=4;spacingRight=4;overflow=hidden;rotatable=0;points=[[0,0.5],[1,0.5]];portConstraint=eastwest;whiteSpace=wrap;html=1;" vertex="1" parent="6cDOueKCvC3l6UsM-qoG-21">
          <mxGeometry y="86" width="220" height="26" as="geometry" />
        </mxCell>
        <mxCell id="6cDOueKCvC3l6UsM-qoG-32" value="+ getScore() : int" style="text;strokeColor=none;fillColor=none;align=left;verticalAlign=top;spacingLeft=4;spacingRight=4;overflow=hidden;rotatable=0;points=[[0,0.5],[1,0.5]];portConstraint=eastwest;whiteSpace=wrap;html=1;" vertex="1" parent="6cDOueKCvC3l6UsM-qoG-21">
          <mxGeometry y="112" width="220" height="26" as="geometry" />
        </mxCell>
        <mxCell id="6cDOueKCvC3l6UsM-qoG-33" value="+ setScore(int)" style="text;strokeColor=none;fillColor=none;align=left;verticalAlign=top;spacingLeft=4;spacingRight=4;overflow=hidden;rotatable=0;points=[[0,0.5],[1,0.5]];portConstraint=eastwest;whiteSpace=wrap;html=1;" vertex="1" parent="6cDOueKCvC3l6UsM-qoG-21">
          <mxGeometry y="138" width="220" height="26" as="geometry" />
        </mxCell>
        <mxCell id="6cDOueKCvC3l6UsM-qoG-34" value="+ getMealHistory() : List" style="text;strokeColor=none;fillColor=none;align=left;verticalAlign=top;spacingLeft=4;spacingRight=4;overflow=hidden;rotatable=0;points=[[0,0.5],[1,0.5]];portConstraint=eastwest;whiteSpace=wrap;html=1;" vertex="1" parent="6cDOueKCvC3l6UsM-qoG-21">
          <mxGeometry y="164" width="220" height="26" as="geometry" />
        </mxCell>
        <mxCell id="6cDOueKCvC3l6UsM-qoG-35" value="+ setMealHistory(List)" style="text;strokeColor=none;fillColor=none;align=left;verticalAlign=top;spacingLeft=4;spacingRight=4;overflow=hidden;rotatable=0;points=[[0,0.5],[1,0.5]];portConstraint=eastwest;whiteSpace=wrap;html=1;" vertex="1" parent="6cDOueKCvC3l6UsM-qoG-21">
          <mxGeometry y="190" width="220" height="26" as="geometry" />
        </mxCell>
        <mxCell id="NyxN-wr9MTnO8G2wUMHC-25" value="Fitness" style="swimlane;fontStyle=1;align=center;verticalAlign=top;childLayout=stackLayout;horizontal=1;startSize=26;horizontalStack=0;resizeParent=1;resizeParentMax=0;resizeLast=0;collapsible=1;marginBottom=0;whiteSpace=wrap;html=1;" vertex="1" parent="1">
          <mxGeometry x="315" width="220" height="326" as="geometry" />
        </mxCell>
        <mxCell id="NyxN-wr9MTnO8G2wUMHC-26" value="- score : Int&lt;div&gt;&lt;br&gt;&lt;/div&gt;&lt;div&gt;- exercisePlan : List&lt;/div&gt;" style="text;strokeColor=none;fillColor=none;align=left;verticalAlign=top;spacingLeft=4;spacingRight=4;overflow=hidden;rotatable=0;points=[[0,0.5],[1,0.5]];portConstraint=eastwest;whiteSpace=wrap;html=1;" vertex="1" parent="NyxN-wr9MTnO8G2wUMHC-25">
          <mxGeometry y="26" width="220" height="64" as="geometry" />
        </mxCell>
        <mxCell id="NyxN-wr9MTnO8G2wUMHC-27" value="" style="line;strokeWidth=1;fillColor=none;align=left;verticalAlign=middle;spacingTop=-1;spacingLeft=3;spacingRight=3;rotatable=0;labelPosition=right;points=[];portConstraint=eastwest;strokeColor=inherit;" vertex="1" parent="NyxN-wr9MTnO8G2wUMHC-25">
          <mxGeometry y="90" width="220" height="8" as="geometry" />
        </mxCell>
        <mxCell id="NyxN-wr9MTnO8G2wUMHC-28" value="+ Fitness () : Fitness&lt;div&gt;&lt;br&gt;&lt;/div&gt;&lt;div&gt;+ getActivity () : Activity&amp;nbsp;&lt;/div&gt;" style="text;strokeColor=none;fillColor=none;align=left;verticalAlign=top;spacingLeft=4;spacingRight=4;overflow=hidden;rotatable=0;points=[[0,0.5],[1,0.5]];portConstraint=eastwest;whiteSpace=wrap;html=1;" vertex="1" parent="NyxN-wr9MTnO8G2wUMHC-25">
          <mxGeometry y="98" width="220" height="62" as="geometry" />
        </mxCell>
        <mxCell id="6cDOueKCvC3l6UsM-qoG-37" value="+ getScore() : int" style="text;strokeColor=none;fillColor=none;align=left;verticalAlign=top;spacingLeft=4;spacingRight=4;overflow=hidden;rotatable=0;points=[[0,0.5],[1,0.5]];portConstraint=eastwest;whiteSpace=wrap;html=1;" vertex="1" parent="NyxN-wr9MTnO8G2wUMHC-25">
          <mxGeometry y="160" width="220" height="26" as="geometry" />
        </mxCell>
        <mxCell id="6cDOueKCvC3l6UsM-qoG-38" value="+ setScore(int) " style="text;strokeColor=none;fillColor=none;align=left;verticalAlign=top;spacingLeft=4;spacingRight=4;overflow=hidden;rotatable=0;points=[[0,0.5],[1,0.5]];portConstraint=eastwest;whiteSpace=wrap;html=1;" vertex="1" parent="NyxN-wr9MTnO8G2wUMHC-25">
          <mxGeometry y="186" width="220" height="26" as="geometry" />
        </mxCell>
        <mxCell id="6cDOueKCvC3l6UsM-qoG-36" value="+ Fitness () : Fitness&lt;div&gt;&lt;br&gt;&lt;/div&gt;&lt;div&gt;+ setActivity (Activity)&amp;nbsp; &lt;br&gt;&lt;/div&gt;" style="text;strokeColor=none;fillColor=none;align=left;verticalAlign=top;spacingLeft=4;spacingRight=4;overflow=hidden;rotatable=0;points=[[0,0.5],[1,0.5]];portConstraint=eastwest;whiteSpace=wrap;html=1;" vertex="1" parent="NyxN-wr9MTnO8G2wUMHC-25">
          <mxGeometry y="212" width="220" height="62" as="geometry" />
        </mxCell>
        <mxCell id="6cDOueKCvC3l6UsM-qoG-39" value="+ getExercisePlan() : List" style="text;strokeColor=none;fillColor=none;align=left;verticalAlign=top;spacingLeft=4;spacingRight=4;overflow=hidden;rotatable=0;points=[[0,0.5],[1,0.5]];portConstraint=eastwest;whiteSpace=wrap;html=1;" vertex="1" parent="NyxN-wr9MTnO8G2wUMHC-25">
          <mxGeometry y="274" width="220" height="26" as="geometry" />
        </mxCell>
        <mxCell id="6cDOueKCvC3l6UsM-qoG-40" value="+ setExercisePlan(List)" style="text;strokeColor=none;fillColor=none;align=left;verticalAlign=top;spacingLeft=4;spacingRight=4;overflow=hidden;rotatable=0;points=[[0,0.5],[1,0.5]];portConstraint=eastwest;whiteSpace=wrap;html=1;" vertex="1" parent="NyxN-wr9MTnO8G2wUMHC-25">
          <mxGeometry y="300" width="220" height="26" as="geometry" />
        </mxCell>
        <mxCell id="NyxN-wr9MTnO8G2wUMHC-29" value="Activity" style="swimlane;fontStyle=1;align=center;verticalAlign=middle;childLayout=stackLayout;horizontal=1;startSize=29;horizontalStack=0;resizeParent=1;resizeParentMax=0;resizeLast=0;collapsible=0;marginBottom=0;html=1;whiteSpace=wrap;" vertex="1" parent="1">
          <mxGeometry x="580" y="-700" width="220" height="272" as="geometry" />
        </mxCell>
        <mxCell id="NyxN-wr9MTnO8G2wUMHC-31" value="- MovementScore : Int&lt;div&gt;&lt;br&gt;&lt;/div&gt;&lt;div&gt;- ExerciseStreak : Int&lt;/div&gt;&lt;div&gt;&lt;br&gt;&lt;/div&gt;&lt;div&gt;-MeditaionScore : Int&lt;/div&gt;" style="text;html=1;strokeColor=none;fillColor=none;align=left;verticalAlign=middle;spacingLeft=4;spacingRight=4;overflow=hidden;rotatable=0;points=[[0,0.5],[1,0.5]];portConstraint=eastwest;whiteSpace=wrap;" vertex="1" parent="NyxN-wr9MTnO8G2wUMHC-29">
          <mxGeometry y="29" width="220" height="81" as="geometry" />
        </mxCell>
        <mxCell id="6cDOueKCvC3l6UsM-qoG-41" value="+ getMovementScore() : int&lt;br&gt;&lt;div&gt;&lt;br&gt;&lt;/div&gt;&lt;div&gt;+ setMovementScore(int)&lt;br&gt;&lt;/div&gt;&lt;div&gt;&lt;br&gt;&lt;/div&gt;&lt;div&gt;+ getExerciseStreak() : int&lt;/div&gt;" style="text;html=1;strokeColor=none;fillColor=none;align=left;verticalAlign=middle;spacingLeft=4;spacingRight=4;overflow=hidden;rotatable=0;points=[[0,0.5],[1,0.5]];portConstraint=eastwest;whiteSpace=wrap;" vertex="1" parent="NyxN-wr9MTnO8G2wUMHC-29">
          <mxGeometry y="110" width="220" height="81" as="geometry" />
        </mxCell>
        <mxCell id="6cDOueKCvC3l6UsM-qoG-43" value="&lt;div&gt;+ setExerciseStreak(int)&lt;/div&gt;&lt;div&gt;&lt;br&gt;&lt;/div&gt;&lt;div&gt;+ getMeditationScore() : int&lt;/div&gt;&lt;div&gt;&lt;br&gt;&lt;/div&gt;&lt;div&gt;+ setMeditationScore(int)&lt;br&gt;&lt;/div&gt;" style="text;html=1;strokeColor=none;fillColor=none;align=left;verticalAlign=middle;spacingLeft=4;spacingRight=4;overflow=hidden;rotatable=0;points=[[0,0.5],[1,0.5]];portConstraint=eastwest;whiteSpace=wrap;" vertex="1" parent="NyxN-wr9MTnO8G2wUMHC-29">
          <mxGeometry y="191" width="220" height="81" as="geometry" />
        </mxCell>
        <mxCell id="w9-DqvyJSrJAXlp_HZbT-30" value="" style="endArrow=diamondThin;endFill=1;endSize=24;html=1;rounded=0;entryX=0.5;entryY=1;entryDx=0;entryDy=0;exitX=0.5;exitY=0;exitDx=0;exitDy=0;" edge="1" parent="1" source="NyxN-wr9MTnO8G2wUMHC-25" target="6cDOueKCvC3l6UsM-qoG-7">
          <mxGeometry width="160" relative="1" as="geometry">
            <mxPoint x="290" y="-80" as="sourcePoint" />
            <mxPoint x="450" y="-80" as="targetPoint" />
          </mxGeometry>
        </mxCell>
        <mxCell id="w9-DqvyJSrJAXlp_HZbT-31" value="" style="endArrow=diamondThin;endFill=1;endSize=24;html=1;rounded=0;exitX=0.468;exitY=0;exitDx=0;exitDy=0;exitPerimeter=0;entryX=0;entryY=0.5;entryDx=0;entryDy=0;" edge="1" parent="1" source="6cDOueKCvC3l6UsM-qoG-21" target="6cDOueKCvC3l6UsM-qoG-11">
          <mxGeometry width="160" relative="1" as="geometry">
            <mxPoint x="90" y="-80" as="sourcePoint" />
            <mxPoint x="250" y="-80" as="targetPoint" />
            <Array as="points">
              <mxPoint x="123" y="-251" />
            </Array>
          </mxGeometry>
        </mxCell>
        <mxCell id="w9-DqvyJSrJAXlp_HZbT-32" value="" style="endArrow=diamondThin;endFill=1;endSize=24;html=1;rounded=0;exitX=0.5;exitY=0;exitDx=0;exitDy=0;entryX=1;entryY=0.5;entryDx=0;entryDy=0;" edge="1" parent="1" source="6cDOueKCvC3l6UsM-qoG-1" target="6cDOueKCvC3l6UsM-qoG-11">
          <mxGeometry width="160" relative="1" as="geometry">
            <mxPoint x="620" y="-120" as="sourcePoint" />
            <mxPoint x="740" y="-250" as="targetPoint" />
            <Array as="points">
              <mxPoint x="740" y="-251" />
            </Array>
          </mxGeometry>
        </mxCell>
        <mxCell id="w9-DqvyJSrJAXlp_HZbT-34" value="" style="edgeStyle=elbowEdgeStyle;html=1;endArrow=none;elbow=vertical;rounded=0;exitX=0.491;exitY=1;exitDx=0;exitDy=0;entryX=0.5;entryY=0;entryDx=0;entryDy=0;exitPerimeter=0;" edge="1" parent="1" source="6cDOueKCvC3l6UsM-qoG-40" target="w9-DqvyJSrJAXlp_HZbT-8">
          <mxGeometry width="160" relative="1" as="geometry">
            <mxPoint x="530" y="360" as="sourcePoint" />
            <mxPoint x="690" y="360" as="targetPoint" />
          </mxGeometry>
        </mxCell>
        <mxCell id="w9-DqvyJSrJAXlp_HZbT-35" value="" style="edgeStyle=elbowEdgeStyle;html=1;endArrow=none;elbow=vertical;rounded=0;entryX=0.5;entryY=1;entryDx=0;entryDy=0;exitX=1;exitY=0.5;exitDx=0;exitDy=0;" edge="1" parent="1" target="6cDOueKCvC3l6UsM-qoG-1">
          <mxGeometry width="160" relative="1" as="geometry">
            <mxPoint x="502.5" y="531" as="sourcePoint" />
            <mxPoint x="812.5" y="260" as="targetPoint" />
            <Array as="points">
              <mxPoint x="772.5" y="525" />
            </Array>
          </mxGeometry>
        </mxCell>
        <mxCell id="w9-DqvyJSrJAXlp_HZbT-36" value="" style="edgeStyle=elbowEdgeStyle;html=1;endArrow=none;elbow=vertical;rounded=0;exitX=0.445;exitY=1.154;exitDx=0;exitDy=0;entryX=0;entryY=0.5;entryDx=0;entryDy=0;exitPerimeter=0;" edge="1" parent="1">
          <mxGeometry width="160" relative="1" as="geometry">
            <mxPoint x="117.90000000000009" y="216.0039999999999" as="sourcePoint" />
            <mxPoint x="342.5" y="517" as="targetPoint" />
            <Array as="points">
              <mxPoint x="250" y="520" />
            </Array>
          </mxGeometry>
        </mxCell>
        <mxCell id="w9-DqvyJSrJAXlp_HZbT-37" value="1" style="text;html=1;align=center;verticalAlign=middle;resizable=0;points=[];autosize=1;strokeColor=none;fillColor=none;" vertex="1" parent="1">
          <mxGeometry x="120" y="220" width="30" height="30" as="geometry" />
        </mxCell>
        <mxCell id="w9-DqvyJSrJAXlp_HZbT-42" value="1" style="text;html=1;align=center;verticalAlign=middle;resizable=0;points=[];autosize=1;strokeColor=none;fillColor=none;" vertex="1" parent="1">
          <mxGeometry x="300" y="480" width="30" height="30" as="geometry" />
        </mxCell>
        <mxCell id="w9-DqvyJSrJAXlp_HZbT-43" value="1" style="text;html=1;align=center;verticalAlign=middle;resizable=0;points=[];autosize=1;strokeColor=none;fillColor=none;" vertex="1" parent="1">
          <mxGeometry x="505" y="490" width="30" height="30" as="geometry" />
        </mxCell>
        <mxCell id="w9-DqvyJSrJAXlp_HZbT-44" value="1" style="text;html=1;align=center;verticalAlign=middle;resizable=0;points=[];autosize=1;strokeColor=none;fillColor=none;" vertex="1" parent="1">
          <mxGeometry x="420" y="340" width="30" height="30" as="geometry" />
        </mxCell>
        <mxCell id="w9-DqvyJSrJAXlp_HZbT-45" value="1" style="text;html=1;align=center;verticalAlign=middle;resizable=0;points=[];autosize=1;strokeColor=none;fillColor=none;" vertex="1" parent="1">
          <mxGeometry x="420" y="320" width="30" height="30" as="geometry" />
        </mxCell>
        <mxCell id="w9-DqvyJSrJAXlp_HZbT-46" value="1" style="text;html=1;align=center;verticalAlign=middle;resizable=0;points=[];autosize=1;strokeColor=none;fillColor=none;" vertex="1" parent="1">
          <mxGeometry x="740" y="220" width="30" height="30" as="geometry" />
        </mxCell>
        <mxCell id="w9-DqvyJSrJAXlp_HZbT-48" value="" style="edgeStyle=elbowEdgeStyle;html=1;endArrow=none;elbow=vertical;rounded=0;exitX=0.481;exitY=1.154;exitDx=0;exitDy=0;exitPerimeter=0;entryX=0.5;entryY=0;entryDx=0;entryDy=0;" edge="1" parent="1" source="w9-DqvyJSrJAXlp_HZbT-24" target="6cDOueKCvC3l6UsM-qoG-7">
          <mxGeometry width="160" relative="1" as="geometry">
            <mxPoint x="110" y="-370" as="sourcePoint" />
            <mxPoint x="270" y="-370" as="targetPoint" />
          </mxGeometry>
        </mxCell>
        <mxCell id="w9-DqvyJSrJAXlp_HZbT-49" value="" style="edgeStyle=elbowEdgeStyle;html=1;endArrow=none;elbow=vertical;rounded=0;exitX=1;exitY=0.5;exitDx=0;exitDy=0;entryX=0;entryY=0.5;entryDx=0;entryDy=0;" edge="1" parent="1" source="NyxN-wr9MTnO8G2wUMHC-24" target="w9-DqvyJSrJAXlp_HZbT-22">
          <mxGeometry width="160" relative="1" as="geometry">
            <mxPoint x="60" y="-370" as="sourcePoint" />
            <mxPoint x="220" y="-370" as="targetPoint" />
          </mxGeometry>
        </mxCell>
        <mxCell id="w9-DqvyJSrJAXlp_HZbT-51" value="" style="endArrow=diamondThin;endFill=1;endSize=24;html=1;rounded=0;entryX=1.009;entryY=0;entryDx=0;entryDy=0;entryPerimeter=0;exitX=0.505;exitY=1.037;exitDx=0;exitDy=0;exitPerimeter=0;" edge="1" parent="1" source="6cDOueKCvC3l6UsM-qoG-43" target="6cDOueKCvC3l6UsM-qoG-10">
          <mxGeometry width="160" relative="1" as="geometry">
            <mxPoint x="120" y="-330" as="sourcePoint" />
            <mxPoint x="650" y="-350" as="targetPoint" />
            <Array as="points">
              <mxPoint x="691" y="-290" />
            </Array>
          </mxGeometry>
        </mxCell>
        <mxCell id="w9-DqvyJSrJAXlp_HZbT-52" value="1" style="text;html=1;align=center;verticalAlign=middle;resizable=0;points=[];autosize=1;strokeColor=none;fillColor=none;" vertex="1" parent="1">
          <mxGeometry x="420" y="-380" width="30" height="30" as="geometry" />
        </mxCell>
        <mxCell id="w9-DqvyJSrJAXlp_HZbT-53" value="1..*" style="text;html=1;align=center;verticalAlign=middle;resizable=0;points=[];autosize=1;strokeColor=none;fillColor=none;" vertex="1" parent="1">
          <mxGeometry x="645" y="-420" width="40" height="30" as="geometry" />
        </mxCell>
        <mxCell id="w9-DqvyJSrJAXlp_HZbT-54" value="1" style="text;html=1;align=center;verticalAlign=middle;resizable=0;points=[];autosize=1;strokeColor=none;fillColor=none;" vertex="1" parent="1">
          <mxGeometry x="560" y="-310" width="30" height="30" as="geometry" />
        </mxCell>
      </root>
    </mxGraphModel>
  </diagram>
</mxfile>
